<svg width="97" height="136" viewBox="0 0 97 136" fill="none" xmlns="http://www.w3.org/2000/svg">
<path d="M47.5869 122.507V115.933C46.9127 115.614 46.2386 115.299 45.4134 114.911C44.7252 115.548 44.044 116.178 43.2329 116.928C42.3797 117.593 41.4703 118.248 40.3958 119.428C40.5889 119.635 40.7364 119.799 40.8874 119.95C41.2561 120.321 41.7196 120.661 41.3544 121.281C40.9752 121.925 40.3221 122.209 39.7076 121.911C38.2048 121.183 37.1022 119.964 36.3578 118.49C36.2139 118.203 36.4562 117.516 36.7406 117.278C36.9934 117.071 37.5657 117.176 37.973 117.26C38.2083 117.31 38.3979 117.583 38.5875 117.74C39.6865 116.718 40.6837 115.737 41.7371 114.823C43.5173 113.275 43.5419 113.254 42.5728 110.964H35.5467C35.4554 111.415 35.466 111.85 35.2799 112.168C35.0727 112.519 34.6408 113.023 34.374 112.984C33.9491 112.921 33.2749 112.494 33.2469 112.175C33.1275 110.67 33.124 109.146 33.2363 107.64C33.2644 107.262 33.8157 106.747 34.23 106.614C34.7988 106.429 35.1851 106.877 35.3045 107.479C35.3606 107.759 35.4449 108.032 35.5819 108.565C37.664 108.565 39.7603 108.61 41.846 108.526C42.2322 108.512 42.7589 108.046 42.9345 107.658C43.247 106.968 43.3383 106.19 42.6571 105.564C41.3228 104.341 40.0026 103.105 38.6226 101.827C38.4295 101.946 38.2188 102.033 38.0678 102.18C37.664 102.569 37.2813 102.895 36.709 102.45C36.1437 102.009 36.0313 101.382 36.4281 100.909C37.3586 99.7991 38.3944 98.78 39.4232 97.7609C39.6058 97.5823 39.9604 97.4982 40.2308 97.5017C41.077 97.5087 41.5475 98.3737 41.1051 99.0952C40.8944 99.4384 40.603 99.729 40.294 100.111C41.9092 101.578 43.4928 103.017 45.129 104.506C45.5785 104.32 46.0068 104.152 46.4282 103.97C47.3095 103.592 47.78 103.017 47.7239 101.96C47.6361 100.289 47.6993 98.6119 47.6993 96.8398C47.1972 96.8153 46.9198 96.7803 46.6424 96.7908C46.0595 96.8118 45.582 96.6752 45.4626 96.0203C45.3467 95.3759 45.5785 94.8576 46.1719 94.567C46.4774 94.4164 46.832 94.2798 47.1656 94.2798C48.4507 94.2798 49.7358 94.3043 51.0174 94.3989C51.3896 94.4269 51.8285 94.63 52.0884 94.8962C52.7731 95.5931 52.45 96.5246 51.4844 96.7207C51.1544 96.7873 50.7997 96.7312 50.2906 96.7312C50.2906 98.8185 50.2414 100.836 50.3152 102.849C50.3433 103.665 50.74 103.847 52.7661 104.45C54.304 103.017 55.9122 101.522 57.5765 99.9707C57.1481 99.4734 56.8181 99.0917 56.4985 98.7204C57.3026 97.3056 57.6608 97.1515 58.7387 98.013C59.6482 98.7344 60.4663 99.5784 61.2458 100.44C61.5267 100.752 61.7058 101.266 61.7058 101.69C61.7093 102.447 61.0667 102.811 60.3715 102.496C59.9642 102.31 59.606 102.019 59.0126 101.634C57.6924 103.01 56.3686 104.397 55.0343 105.777C54.5041 106.327 54.5638 106.905 54.8447 107.546C55.1221 108.183 55.4908 108.631 56.2633 108.624C58.2401 108.61 60.217 108.621 62.2219 108.621C62.401 108.085 62.4642 107.595 62.7135 107.234C62.9172 106.94 63.3842 106.586 63.6615 106.639C64.0408 106.709 64.6236 107.118 64.6482 107.42C64.7711 108.982 64.8062 110.561 64.7114 112.126C64.6903 112.459 64.0232 112.893 63.5843 112.995C63.3631 113.047 62.9277 112.498 62.71 112.144C62.545 111.871 62.5695 111.482 62.4958 111.062C60.3364 111.062 58.2472 111.006 56.165 111.083C55.0273 111.125 54.3356 112.578 54.929 113.552C55.1959 113.993 55.5786 114.375 55.9543 114.739C57.0393 115.79 58.1453 116.819 59.3708 117.978C59.5709 117.8 59.8553 117.565 60.1187 117.306C60.5154 116.917 61.014 116.812 61.3336 117.253C61.6004 117.621 61.8884 118.402 61.7128 118.595C60.5892 119.835 59.4059 121.039 58.1032 122.09C57.5063 122.573 57.2219 122.3 56.3546 120.819C56.6917 120.412 57.0498 119.982 57.4396 119.512C55.8314 118.013 54.2619 116.55 52.5835 114.988C51.8812 115.24 51.1368 115.506 50.2976 115.807V122.517C50.6417 122.517 50.9296 122.57 51.193 122.507C51.9128 122.335 52.3377 122.598 52.4641 123.302C52.5905 124.012 52.3587 124.751 51.6284 124.8C49.8341 124.923 48.0188 124.927 46.221 124.825C45.4661 124.783 45.273 124.019 45.3502 123.333C45.4415 122.521 45.9577 122.275 46.7302 122.454C46.9514 122.507 47.1866 122.489 47.5799 122.517L47.5869 122.507ZM53.5736 109.826C53.5842 107.483 51.3335 105.224 48.9949 105.224C46.688 105.224 44.3881 107.416 44.3881 109.612C44.3881 112.042 46.6915 114.336 49.1003 114.315C51.3967 114.294 53.5631 112.119 53.5736 109.822V109.826Z" fill="white"/>
<path d="M44.7849 102.117C43.8299 102.135 43.0223 101.33 43.0293 100.363C43.0328 99.4454 43.8615 98.6994 44.8832 98.6924C45.7786 98.6854 46.4879 99.4034 46.523 100.345C46.5581 101.277 45.747 102.103 44.7884 102.117H44.7849Z" fill="white"/>
<path d="M53.2436 98.6467C54.2057 98.6992 54.9606 99.4486 54.915 100.303C54.8588 101.326 53.9107 102.194 52.9486 102.103C52.1305 102.026 51.4599 101.273 51.4704 100.443C51.4844 99.5082 52.3798 98.6011 53.2436 98.6467Z" fill="white"/>
<path d="M40.9611 105.836C40.9506 106.698 40.1149 107.524 39.2828 107.496C38.2926 107.461 37.5482 106.785 37.5447 105.91C37.5376 104.94 38.2188 104.166 39.0931 104.148C40.0587 104.127 40.9717 104.95 40.9611 105.836Z" fill="white"/>
<path d="M54.8869 119.008C54.8517 119.775 53.9142 120.518 53.0048 120.497C52.1726 120.475 51.3966 119.572 51.4704 118.703C51.5371 117.884 52.4922 117.078 53.2998 117.156C54.0301 117.226 54.9185 118.262 54.8869 119.008Z" fill="white"/>
<path d="M58.7809 115.092C57.7345 115.082 56.9024 114.333 56.9234 113.418C56.941 112.638 57.6889 112.018 58.6159 112.014C59.5674 112.014 60.4382 112.708 60.4698 113.499C60.5049 114.378 59.736 115.099 58.7809 115.089V115.092Z" fill="white"/>
<path d="M60.4803 105.907C60.4628 106.688 59.5218 107.532 58.7001 107.5C57.889 107.472 56.9375 106.449 56.9515 105.619C56.962 104.923 57.8328 104.163 58.6369 104.149C59.5182 104.135 60.4944 105.066 60.4768 105.903L60.4803 105.907Z" fill="white"/>
<path d="M39.1703 115.134C39.9867 115.134 40.6486 114.474 40.6486 113.66C40.6486 112.846 39.9867 112.186 39.1703 112.186C38.3539 112.186 37.6921 112.846 37.6921 113.66C37.6921 114.474 38.3539 115.134 39.1703 115.134Z" fill="white"/>
<path d="M45.2062 120.496C46.0789 120.496 46.7863 119.791 46.7863 118.92C46.7863 118.05 46.0789 117.344 45.2062 117.344C44.3336 117.344 43.6262 118.05 43.6262 118.92C43.6262 119.791 44.3336 120.496 45.2062 120.496Z" fill="white"/>
<path d="M66.2423 133.853L64.3287 136C64.3287 136 97.0222 129.444 96.9625 89.8633C96.9625 89.8633 93.6759 67.45 87.5488 59.938L82.7383 96.4192L72.6961 127.416L66.2423 133.853Z" fill="#0F5582"/>
<path d="M69.3534 92.3638C69.3534 92.3638 81.843 117.936 66.2459 133.853C66.2459 133.853 99.1185 118.115 87.5524 59.938C87.5524 59.938 86.8044 78.6566 69.3534 92.3673V92.3638Z" fill="#0F5989"/>
<path d="M34.5671 87.5979C34.5671 87.5979 50.4029 71.0015 52.1691 56.734C53.9353 42.4665 58.6228 40.7575 58.6228 40.7575L52.7063 31.561L33.3416 65.6538L27.246 77.4594L34.5671 87.5944V87.5979Z" fill="#0285B7"/>
<path d="M67.0359 76.8916C67.0359 76.8916 79.2727 77.4624 87.4891 58.6562C87.4891 58.6562 89.5502 82.5895 69.3498 92.3673L63.7317 81.5179L63.0154 76.0056L67.0359 76.8951V76.8916Z" fill="#0280AF"/>
<path d="M36.7476 0C36.7476 0 96.2462 40.7573 63.7318 81.518L51.3019 60.537C51.3019 60.537 56.9199 39.1953 51.7794 30.7308L36.7476 0.00350283V0Z" fill="url(#paint0_linear_4314_310)"/>
<path d="M25.6343 46.9419C25.6343 46.9419 47.7765 31.116 36.751 0C36.751 0 45.8523 8.20539 50.9436 21.9055C55.9016 35.252 58.1804 46.6723 33.1379 76.0022L25.6378 46.9419H25.6343Z" fill="url(#paint1_linear_4314_310)"/>
<path d="M28.5592 45.7476C28.5592 45.7476 33.612 48.3742 34.5705 87.5976C34.5705 87.5976 9.82656 114.9 33.6155 136L18.5556 125.865L6.96136 98.1739L12.8182 73.4071L25.3675 45.7441H28.5628L28.5592 45.7476Z" fill="url(#paint2_linear_4314_310)"/>
<path d="M18.0711 31.5645C18.0711 31.5645 21.0592 45.2751 8.02884 65.8989C8.02884 65.8989 -7.87023 95.1063 8.02884 116.805C8.02884 116.805 20.22 134.806 33.4891 136C33.4891 136 16.1575 129.325 13.7663 104.17C13.7663 104.17 10.5394 97.3756 21.0592 78.0616C21.5367 77.4663 35.4028 56.2436 27.8711 44.7988L18.0711 31.5645Z" fill="#0F5582"/>
<defs>
<linearGradient id="paint0_linear_4314_310" x1="55.0986" y1="0" x2="55.0986" y2="81.518" gradientUnits="userSpaceOnUse">
<stop stop-color="#00AEEF"/>
<stop offset="1" stop-color="#006489"/>
</linearGradient>
<linearGradient id="paint1_linear_4314_310" x1="39.8715" y1="0" x2="39.8715" y2="76.0022" gradientUnits="userSpaceOnUse">
<stop stop-color="#0077B6"/>
<stop offset="1" stop-color="#003450"/>
</linearGradient>
<linearGradient id="paint2_linear_4314_310" x1="20.766" y1="45.7441" x2="20.766" y2="136" gradientUnits="userSpaceOnUse">
<stop stop-color="#0A3B5B"/>
<stop offset="1" stop-color="#157DC1"/>
</linearGradient>
</defs>
</svg>
