<svg xmlns="http://www.w3.org/2000/svg" width="114" height="136" fill="none">
    <path fill="#FC523E"
          d="M56.831 0c10.67 9.103 19.205 19.031 18.408 34.003-.472 8.863-3.774 16.502-10.03 22.802-8.439 8.499-16.967 16.908-25.385 25.426-5.797 5.864-7.163 12.762-4.177 20.432 2.528 6.492 9.37 10.954 16.611 11.018 7.207.065 14.132-4.241 16.785-10.779 2.942-7.248 2.035-14.115-3.4-19.852-2.207-2.331-2.585-4.593-1.961-7.624h50.022c-.449 5.076-.44 10.111-1.396 14.956-5.429 27.476-29.493 46.487-57.377 45.587-27.08-.874-50.161-21.677-53.665-48.659-2.373-18.283 2.876-34.306 15.889-47.355C25.278 31.809 34.1 24.36 42.61 16.598 48.006 11.674 53.365 6.72 56.83 0"/>
</svg>